<svg xmlns="http://www.w3.org/2000/svg" xmlns:xlink="http://www.w3.org/1999/xlink" width="1080" zoomAndPan="magnify" viewBox="0 0 810 540.000001" height="720" preserveAspectRatio="xMidYMid meet" version="1.0"><defs><clipPath id="1fc4c13102"><path d="M 0.75 0 L 809.25 0 L 809.25 539 L 0.75 539 Z M 0.75 0 " clip-rule="nonzero"/></clipPath><clipPath id="ec0448ab05"><path d="M 28 454 L 788 454 L 788 539 L 28 539 Z M 28 454 " clip-rule="nonzero"/></clipPath><clipPath id="131739741a"><path d="M 0.75 0 L 82 0 L 82 539 L 0.75 539 Z M 0.75 0 " clip-rule="nonzero"/></clipPath><clipPath id="e0f6f85908"><path d="M 724 0 L 809.25 0 L 809.25 539 L 724 539 Z M 724 0 " clip-rule="nonzero"/></clipPath><clipPath id="d21ea636a1"><path d="M 303.507812 180.273438 L 478.722656 180.273438 L 478.722656 355.488281 L 303.507812 355.488281 Z M 303.507812 180.273438 " clip-rule="nonzero"/></clipPath><clipPath id="61c2999dcd"><path d="M 391.117188 180.273438 C 342.730469 180.273438 303.507812 219.496094 303.507812 267.882812 C 303.507812 316.265625 342.730469 355.488281 391.117188 355.488281 C 439.5 355.488281 478.722656 316.265625 478.722656 267.882812 C 478.722656 219.496094 439.5 180.273438 391.117188 180.273438 Z M 391.117188 180.273438 " clip-rule="nonzero"/></clipPath><clipPath id="35f49ea595"><path d="M 0.507812 0.273438 L 175.722656 0.273438 L 175.722656 175.488281 L 0.507812 175.488281 Z M 0.507812 0.273438 " clip-rule="nonzero"/></clipPath><clipPath id="73c29c0777"><path d="M 88.117188 0.273438 C 39.730469 0.273438 0.507812 39.496094 0.507812 87.882812 C 0.507812 136.265625 39.730469 175.488281 88.117188 175.488281 C 136.5 175.488281 175.722656 136.265625 175.722656 87.882812 C 175.722656 39.496094 136.5 0.273438 88.117188 0.273438 Z M 88.117188 0.273438 " clip-rule="nonzero"/></clipPath><clipPath id="02bfb3eecb"><rect x="0" width="176" y="0" height="176"/></clipPath></defs><g clip-path="url(#1fc4c13102)"><path fill="#ffffff" d="M 0.75 0 L 809.25 0 L 809.25 539 L 0.75 539 Z M 0.75 0 " fill-opacity="1" fill-rule="nonzero"/><path fill="#ffffff" d="M 0.75 0 L 809.25 0 L 809.25 539 L 0.75 539 Z M 0.75 0 " fill-opacity="1" fill-rule="nonzero"/></g><path stroke-linecap="round" transform="matrix(0.748614, 0, 0, 0.748614, 23.171981, -3.136376)" fill="none" stroke-linejoin="miter" d="M 56.500131 56.499814 L 957.592856 56.499814 " stroke="#f86b2e" stroke-width="113" stroke-opacity="1" stroke-miterlimit="4"/><g clip-path="url(#ec0448ab05)"><path stroke-linecap="round" transform="matrix(0.748614, 0, 0, 0.748614, 28.412276, 454.408505)" fill="none" stroke-linejoin="miter" d="M 56.497441 56.502479 L 957.595384 56.502479 " stroke="#fbbc05" stroke-width="113" stroke-opacity="1" stroke-miterlimit="4"/></g><g clip-path="url(#131739741a)"><path stroke-linecap="round" transform="matrix(0, -0.748614, 0.748614, 0, -2.941955, 539.004482)" fill="none" stroke-linejoin="miter" d="M 56.501041 56.501006 L 663.508492 56.501006 " stroke="#4285f4" stroke-width="113" stroke-opacity="1" stroke-miterlimit="4"/></g><g clip-path="url(#e0f6f85908)"><path stroke-linecap="round" transform="matrix(0, -0.748614, 0.748614, 0, 724.655328, 539.004482)" fill="none" stroke-linejoin="miter" d="M 56.501041 56.501504 L 663.508492 56.501504 " stroke="#4285f4" stroke-width="113" stroke-opacity="1" stroke-miterlimit="4"/></g><g clip-path="url(#d21ea636a1)"><g clip-path="url(#61c2999dcd)"><g transform="matrix(1, 0, 0, 1, 303, 180)"><g clip-path="url(#02bfb3eecb)"><g clip-path="url(#35f49ea595)"><g clip-path="url(#73c29c0777)"><path fill="#4285f4" d="M 0.507812 0.273438 L 175.722656 0.273438 L 175.722656 175.488281 L 0.507812 175.488281 Z M 0.507812 0.273438 " fill-opacity="1" fill-rule="nonzero"/></g></g></g></g></g></g></svg>