<svg xmlns="http://www.w3.org/2000/svg" xmlns:xlink="http://www.w3.org/1999/xlink" width="1080" zoomAndPan="magnify" viewBox="0 0 810 540.000001" height="720" preserveAspectRatio="xMidYMid meet" version="1.0"><defs><clipPath id="d68fef62a2"><path d="M 0.75 0 L 809.25 0 L 809.25 539 L 0.75 539 Z M 0.75 0 " clip-rule="nonzero"/></clipPath><clipPath id="a6bc3ffa15"><path d="M 36.355469 0 L 500.382812 0 L 500.382812 464.023438 L 36.355469 464.023438 Z M 36.355469 0 " clip-rule="nonzero"/></clipPath><clipPath id="e71ad03903"><path d="M 268.371094 0 C 140.234375 0 36.355469 103.875 36.355469 232.011719 C 36.355469 360.148438 140.234375 464.023438 268.371094 464.023438 C 396.507812 464.023438 500.382812 360.148438 500.382812 232.011719 C 500.382812 103.875 396.507812 0 268.371094 0 Z M 268.371094 0 " clip-rule="nonzero"/></clipPath><clipPath id="140c3c3cd6"><path d="M 0.355469 0 L 464.382812 0 L 464.382812 464.023438 L 0.355469 464.023438 Z M 0.355469 0 " clip-rule="nonzero"/></clipPath><clipPath id="0751d0b4d8"><path d="M 232.371094 0 C 104.234375 0 0.355469 103.875 0.355469 232.011719 C 0.355469 360.148438 104.234375 464.023438 232.371094 464.023438 C 360.507812 464.023438 464.382812 360.148438 464.382812 232.011719 C 464.382812 103.875 360.507812 0 232.371094 0 Z M 232.371094 0 " clip-rule="nonzero"/></clipPath><clipPath id="f30239c5be"><rect x="0" width="465" y="0" height="465"/></clipPath><clipPath id="0ec6cd868a"><path d="M 82.269531 45.914062 L 454.46875 45.914062 L 454.46875 418.109375 L 82.269531 418.109375 Z M 82.269531 45.914062 " clip-rule="nonzero"/></clipPath><clipPath id="c0593cdd31"><path d="M 268.371094 45.914062 C 165.589844 45.914062 82.269531 129.234375 82.269531 232.011719 C 82.269531 334.792969 165.589844 418.109375 268.371094 418.109375 C 371.148438 418.109375 454.46875 334.792969 454.46875 232.011719 C 454.46875 129.234375 371.148438 45.914062 268.371094 45.914062 Z M 268.371094 45.914062 " clip-rule="nonzero"/></clipPath><clipPath id="d2e947ce7e"><path d="M 0.269531 0.914062 L 372.46875 0.914062 L 372.46875 373.109375 L 0.269531 373.109375 Z M 0.269531 0.914062 " clip-rule="nonzero"/></clipPath><clipPath id="98c5e5cdc9"><path d="M 186.371094 0.914062 C 83.589844 0.914062 0.269531 84.234375 0.269531 187.011719 C 0.269531 289.792969 83.589844 373.109375 186.371094 373.109375 C 289.148438 373.109375 372.46875 289.792969 372.46875 187.011719 C 372.46875 84.234375 289.148438 0.914062 186.371094 0.914062 Z M 186.371094 0.914062 " clip-rule="nonzero"/></clipPath><clipPath id="da36c439a8"><rect x="0" width="373" y="0" height="374"/></clipPath><clipPath id="59003b8a6d"><path d="M 82.269531 45.914062 L 454.332031 45.914062 L 454.332031 417.972656 L 82.269531 417.972656 Z M 82.269531 45.914062 " clip-rule="nonzero"/></clipPath><clipPath id="d3416bebaa"><path d="M 268.363281 45.914062 C 165.585938 45.914062 82.269531 129.230469 82.269531 232.007812 C 82.269531 334.785156 165.585938 418.101562 268.363281 418.101562 C 371.140625 418.101562 454.460938 334.785156 454.460938 232.007812 C 454.460938 129.230469 371.140625 45.914062 268.363281 45.914062 Z M 268.363281 45.914062 " clip-rule="nonzero"/></clipPath></defs><g clip-path="url(#d68fef62a2)"><path fill="#ffffff" d="M 0.75 0 L 809.25 0 L 809.25 539 L 0.75 539 Z M 0.75 0 " fill-opacity="1" fill-rule="nonzero"/><path fill="#ffffff" d="M 0.75 0 L 809.25 0 L 809.25 539 L 0.75 539 Z M 0.75 0 " fill-opacity="1" fill-rule="nonzero"/><path stroke-linecap="round" transform="matrix(0.647537, 0.375657, -0.375657, 0.647537, 419.863569, 209.857188)" fill="none" stroke-linejoin="miter" d="M 119.001624 118.998916 L 427.345811 118.999493 " stroke="#f86b2e" stroke-width="238" stroke-opacity="1" stroke-miterlimit="4"/></g><g clip-path="url(#a6bc3ffa15)"><g clip-path="url(#e71ad03903)"><g transform="matrix(1, 0, 0, 1, 36, 0.000000000000017795)"><g clip-path="url(#f30239c5be)"><g clip-path="url(#140c3c3cd6)"><g clip-path="url(#0751d0b4d8)"><path fill="#4285f4" d="M 0.355469 0 L 464.382812 0 L 464.382812 464.023438 L 0.355469 464.023438 Z M 0.355469 0 " fill-opacity="1" fill-rule="nonzero"/></g></g></g></g></g></g><g clip-path="url(#0ec6cd868a)"><g clip-path="url(#c0593cdd31)"><g transform="matrix(1, 0, 0, 1, 82, 45)"><g clip-path="url(#da36c439a8)"><g clip-path="url(#d2e947ce7e)"><g clip-path="url(#98c5e5cdc9)"><path fill="#4285f4" d="M 0.269531 0.914062 L 372.46875 0.914062 L 372.46875 373.109375 L 0.269531 373.109375 Z M 0.269531 0.914062 " fill-opacity="1" fill-rule="nonzero"/></g></g></g></g></g></g><g clip-path="url(#59003b8a6d)"><g clip-path="url(#d3416bebaa)"><path stroke-linecap="butt" transform="matrix(0.748614, 0, 0, 0.748614, 82.270256, 45.913192)" fill="none" stroke-linejoin="miter" d="M 248.583533 0.00116263 C 111.293298 0.00116263 -0.000967686 111.295428 -0.000967686 248.585663 C -0.000967686 385.875898 111.293298 497.170164 248.583533 497.170164 C 385.873768 497.170164 497.173252 385.875898 497.173252 248.585663 C 497.173252 111.295428 385.873768 0.00116263 248.583533 0.00116263 Z M 248.583533 0.00116263 " stroke="#fbbc05" stroke-width="44" stroke-opacity="1" stroke-miterlimit="4"/></g></g></svg>