<svg xmlns="http://www.w3.org/2000/svg" xmlns:xlink="http://www.w3.org/1999/xlink" width="1080" zoomAndPan="magnify" viewBox="0 0 810 540.000001" height="720" preserveAspectRatio="xMidYMid meet" version="1.0"><defs><clipPath id="dd035bfee8"><path d="M 0.75 0 L 809.25 0 L 809.25 539 L 0.75 539 Z M 0.75 0 " clip-rule="nonzero"/></clipPath><clipPath id="8ead8b8fdc"><path d="M 0.75 1 L 809.25 1 L 809.25 152 L 0.75 152 Z M 0.75 1 " clip-rule="nonzero"/></clipPath><clipPath id="6f882d05ea"><path d="M 0.75 387 L 809.25 387 L 809.25 538 L 0.75 538 Z M 0.75 387 " clip-rule="nonzero"/></clipPath><clipPath id="4dc5ae76b7"><path d="M 11 0 L 162 0 L 162 539 L 11 539 Z M 11 0 " clip-rule="nonzero"/></clipPath><clipPath id="0850c49a45"><path d="M 648 0 L 799 0 L 799 539 L 648 539 Z M 648 0 " clip-rule="nonzero"/></clipPath><clipPath id="8bc451258d"><path d="M 324.148438 188.652344 L 485.851562 188.652344 L 485.851562 350.351562 L 324.148438 350.351562 Z M 324.148438 188.652344 " clip-rule="nonzero"/></clipPath><clipPath id="ef30555f41"><path d="M 0.148438 0.652344 L 161.851562 0.652344 L 161.851562 162.351562 L 0.148438 162.351562 Z M 0.148438 0.652344 " clip-rule="nonzero"/></clipPath><clipPath id="e76cc94943"><rect x="0" width="162" y="0" height="163"/></clipPath></defs><g clip-path="url(#dd035bfee8)"><path fill="#ffffff" d="M 0.75 0 L 809.25 0 L 809.25 539 L 0.75 539 Z M 0.75 0 " fill-opacity="1" fill-rule="nonzero"/><path fill="#ffffff" d="M 0.75 0 L 809.25 0 L 809.25 539 L 0.75 539 Z M 0.75 0 " fill-opacity="1" fill-rule="nonzero"/></g><g clip-path="url(#8ead8b8fdc)"><path stroke-linecap="butt" transform="matrix(0.748614, 0, 0, 0.748614, 17.200591, 1.616606)" fill="none" stroke-linejoin="miter" d="M -0.00183349 99.998118 L 1014.091436 99.998118 " stroke="#f86b2e" stroke-width="200" stroke-opacity="1" stroke-miterlimit="4"/></g><g clip-path="url(#6f882d05ea)"><path stroke-linecap="butt" transform="matrix(0.748614, 0, 0, 0.748614, 17.200591, 387.799114)" fill="none" stroke-linejoin="miter" d="M -0.00183349 99.999569 L 1014.091436 99.999569 " stroke="#fbbc05" stroke-width="200" stroke-opacity="1" stroke-miterlimit="4"/></g><g clip-path="url(#4dc5ae76b7)"><path stroke-linecap="butt" transform="matrix(0, -0.748614, 0.748614, 0, 11.957622, 538.999212)" fill="none" stroke-linejoin="miter" d="M -0.00105286 100.001771 L 720.006943 100.001771 " stroke="#4285f4" stroke-width="200" stroke-opacity="1" stroke-miterlimit="4"/></g><g clip-path="url(#0850c49a45)"><path stroke-linecap="butt" transform="matrix(0, -0.748614, 0.748614, 0, 648.314271, 538.999212)" fill="none" stroke-linejoin="miter" d="M -0.00105286 100.000194 L 720.006943 100.000194 " stroke="#4285f4" stroke-width="200" stroke-opacity="1" stroke-miterlimit="4"/></g><g clip-path="url(#8bc451258d)"><g transform="matrix(1, 0, 0, 1, 324, 188)"><g clip-path="url(#e76cc94943)"><g clip-path="url(#ef30555f41)"><path fill="#4285f4" d="M 0.148438 0.652344 L 161.851562 0.652344 L 161.851562 162.351562 L 0.148438 162.351562 Z M 0.148438 0.652344 " fill-opacity="1" fill-rule="nonzero"/></g></g></g></g></svg>