<svg xmlns="http://www.w3.org/2000/svg" xmlns:xlink="http://www.w3.org/1999/xlink" width="1080" zoomAndPan="magnify" viewBox="0 0 810 540.000001" height="720" preserveAspectRatio="xMidYMid meet" version="1.0"><defs><clipPath id="06e84b016d"><path d="M 292.296875 181.890625 L 467.511719 181.890625 L 467.511719 357.105469 L 292.296875 357.105469 Z M 292.296875 181.890625 " clip-rule="nonzero"/></clipPath><clipPath id="2b81f8343b"><path d="M 379.902344 181.890625 C 331.519531 181.890625 292.296875 221.113281 292.296875 269.5 C 292.296875 317.882812 331.519531 357.105469 379.902344 357.105469 C 428.289062 357.105469 467.511719 317.882812 467.511719 269.5 C 467.511719 221.113281 428.289062 181.890625 379.902344 181.890625 Z M 379.902344 181.890625 " clip-rule="nonzero"/></clipPath><clipPath id="dd288e8bae"><path d="M 0.296875 0.890625 L 175.511719 0.890625 L 175.511719 176.105469 L 0.296875 176.105469 Z M 0.296875 0.890625 " clip-rule="nonzero"/></clipPath><clipPath id="6022d5d7b2"><path d="M 87.902344 0.890625 C 39.519531 0.890625 0.296875 40.113281 0.296875 88.5 C 0.296875 136.882812 39.519531 176.105469 87.902344 176.105469 C 136.289062 176.105469 175.511719 136.882812 175.511719 88.5 C 175.511719 40.113281 136.289062 0.890625 87.902344 0.890625 Z M 87.902344 0.890625 " clip-rule="nonzero"/></clipPath><clipPath id="c560a5b123"><rect x="0" width="176" y="0" height="177"/></clipPath></defs><path stroke-linecap="round" transform="matrix(0.748614, 0, 0, 0.748614, 17.200591, 1.616606)" fill="none" stroke-linejoin="miter" d="M 100.000726 99.998118 L 914.094094 99.998118 " stroke="#f86b2e" stroke-width="200" stroke-opacity="1" stroke-miterlimit="4"/><path stroke-linecap="round" transform="matrix(0.748614, 0, 0, 0.748614, 17.200591, 387.799114)" fill="none" stroke-linejoin="miter" d="M 100.000726 99.999569 L 914.094094 99.999569 " stroke="#fbbc05" stroke-width="200" stroke-opacity="1" stroke-miterlimit="4"/><path stroke-linecap="round" transform="matrix(0, -0.748614, 0.748614, 0, 11.957622, 538.999212)" fill="none" stroke-linejoin="miter" d="M 100.001507 100.001771 L 620.009601 100.001771 " stroke="#4285f4" stroke-width="200" stroke-opacity="1" stroke-miterlimit="4"/><path stroke-linecap="round" transform="matrix(0, -0.748614, 0.748614, 0, 648.314271, 538.999212)" fill="none" stroke-linejoin="miter" d="M 100.001507 100.000194 L 620.009601 100.000194 " stroke="#4285f4" stroke-width="200" stroke-opacity="1" stroke-miterlimit="4"/><g clip-path="url(#06e84b016d)"><g clip-path="url(#2b81f8343b)"><g transform="matrix(1, 0, 0, 1, 292, 181)"><g clip-path="url(#c560a5b123)"><g clip-path="url(#dd288e8bae)"><g clip-path="url(#6022d5d7b2)"><path fill="#4285f4" d="M 0.296875 0.890625 L 175.511719 0.890625 L 175.511719 176.105469 L 0.296875 176.105469 Z M 0.296875 0.890625 " fill-opacity="1" fill-rule="nonzero"/></g></g></g></g></g></g></svg>